<svg width="497" height="319" viewBox="0 0 497 319" xmlns="http://www.w3.org/2000/svg"><title>pieinthesky</title><g fill="#FFF" fill-rule="evenodd"><path d="M387.598 77.912l-26.343-5.657 26.343-5.657 5.657-26.343 5.657 26.343 26.343 5.657-26.343 5.657-5.657 26.343zm58.328-55.702l-15.5-3.328 15.5-3.328 3.329-15.5 3.328 15.5 15.5 3.328-15.5 3.329-3.328 15.5zm37.973 40.634l-8.985-1.93 8.985-1.93 1.93-8.984 1.929 8.985 8.985 1.93-8.985 1.929-1.93 8.984zM393.58 238.547c-2.352 17.324-4.58 34.82-4.58 38.953 0 22.92-77.455 41.5-173 41.5S43 300.42 43 277.5c0-4.755-2.333-22.997-4.745-40.587 3.895-1.534 7.704-2.695 10.634-1.436 7.674 3.296 6.011 14.708 15.437 16.812 7.274 1.623 15.316-8.976 23.428-7.338 5.547 1.12 1.85 14.206 7.969 15.049 8.383 1.155 25.073-8.7 34.2-7.71 6.169.667 12.155 9.506 18.634 9.987 7.203.536 20.806-7.55 28.27-7.142 6.562.359 9.283 9.378 16.048 9.554 7.758.203 15.643-4.689 23.625-4.689 10.867 0 19.573 7.912 30.01 7.541 7.438-.265 11.641-11.888 18.832-12.406 12.124-.873 19.4 13.59 30.744 12.406 8.403-.877 13.334-16.747 21.295-18.127 9.648-1.672 19.292 7.43 28.223 5.72 5.59-1.07 9.023-13.585 14.244-14.92 6.906-1.764 16.638 13.697 22.863 12.075 4.535-1.182 7.674-8.168 10.87-13.742z"/><path d="M351.575 155.434C316.58 121.708 269.183 101 217 101c-52.364 0-99.907 20.852-134.938 54.784-3.625 2.526-7.433 3.357-10.974 3.896-11.218 1.706-13.228-2.794-22.2 0-6.918 2.154-17.13 10.107-22.35 12.58-5.134 2.431-14.022-.808-17.132 2.236C5.336 178.481 0 194.714 0 199c0 2.277-.314 11.246 3.313 13.35 3.22 1.868 10.269-3.215 12.552 0 3.997 5.625 1.06 16.05 8.317 18.865 6.36 2.467 17.903-7.661 24.707-4.738 7.674 3.296 6.011 14.708 15.437 16.812 7.274 1.623 15.316-8.976 23.428-7.338 5.547 1.12 1.85 14.206 7.969 15.049 8.383 1.155 25.073-8.7 34.2-7.71 6.169.667 12.155 9.506 18.634 9.987 7.203.536 20.806-7.55 28.27-7.142 6.562.359 9.283 9.378 16.048 9.554 7.758.203 15.643-4.689 23.625-4.689 10.867 0 19.573 7.912 30.01 7.541 7.438-.265 11.641-11.888 18.832-12.406 12.124-.873 19.4 13.59 30.744 12.406 8.403-.877 13.334-16.747 21.295-18.127 9.648-1.672 19.292 7.43 28.223 5.72 5.59-1.07 9.023-13.585 14.244-14.92 6.906-1.764 16.638 13.697 22.863 12.075 6.965-1.815 10.638-17.324 16.28-20.375 5.446-2.946 15.908 5.72 20.3 3.563C431.053 220.697 433 205.748 433 199c0-5.208-5.076-21.996-11.008-26.74-5.757-4.604-18.538-1.353-28.924-4.469-9.446-2.834-5.909-5.636-18.181-8.111-5.33-1.075-15.04 0-23.312-4.246z"/></g></svg>