<?xml version="1.0" encoding="UTF-8" standalone="no"?>
<svg width="1280px" height="370px" viewBox="0 0 1280 370" version="1.1" xmlns="http://www.w3.org/2000/svg" xmlns:xlink="http://www.w3.org/1999/xlink">
    <!-- Generator: Sketch 40.3 (33839) - http://www.bohemiancoding.com/sketch -->
    <title>Page 1</title>
    <desc>Created with Sketch.</desc>
    <defs></defs>
    <g id="00-Temp" stroke="none" stroke-width="1" fill="none" fill-rule="evenodd">
        <g id="Web---Desktop" transform="translate(0.000000, -10.000000)" fill="#FFFFFF">
            <g id="Group-4" transform="translate(0.000000, 10.000000)">
                <path d="M1280.0957,309.065991 C1280.0957,308.909401 1210.07726,309.065991 1210.07726,309.065991 L1212.57726,311.565991 L1212.57726,280.169696 C1212.57726,278.788984 1211.45797,277.669696 1210.07726,277.669696 L1161.20228,277.669696 L1163.70228,280.169696 L1163.70228,215.003958 C1163.70228,213.623246 1162.58299,212.503958 1161.20228,212.503958 L1043.32511,212.503958 L1045.82511,215.003958 L1045.82511,76.0438344 C1045.82511,74.6631225 1044.70582,73.5438344 1043.32511,73.5438344 L1017.45266,73.5438344 L1019.95266,76.0438344 L1019.95266,35.7894056 C1019.95266,34.4086937 1018.83337,33.2894056 1017.45266,33.2894056 L896.222304,33.2894056 C894.841593,33.2894056 893.722304,34.4086937 893.722304,35.7894056 L893.722304,84.4645965 L896.222304,81.9645965 L854.056398,81.9645965 C852.675686,81.9645965 851.556398,83.0838846 851.556398,84.4645965 L851.556398,311.722581 L854.056398,309.222581 L844.94448,309.222581 L847.44448,311.722581 L847.44448,99.0355658 C847.44448,97.6548539 846.325192,96.5355658 844.94448,96.5355658 L790.804838,96.5355658 C789.424126,96.5355658 788.304838,97.6548539 788.304838,99.0355658 L788.304838,255.242188 L790.804838,252.742188 L771.171692,252.742188 C769.79098,252.742188 768.671692,253.861476 768.671692,255.242188 L768.671692,272.977355 L771.171692,270.477355 L756.80051,270.477355 C755.419798,270.477355 754.30051,271.596643 754.30051,272.977355 L754.30051,308.987655 L756.80051,306.487655 L743.355369,306.487655 L745.855369,308.987655 L745.855369,197.743961 C745.855369,196.363249 744.736081,195.243961 743.355369,195.243961 L721.335575,195.243961 L723.835575,197.743961 L723.835575,152.700038 C723.835575,151.319326 722.716287,150.200038 721.335575,150.200038 L670.527521,150.200038 L673.027521,152.700038 L673.027521,142.165311 C673.027521,140.784599 671.908232,139.665311 670.527521,139.665311 L663.594363,139.665311 L666.094363,142.165311 L666.094363,80.6308414 C666.094363,80.5104393 660.317705,40.7293716 660.317705,40.7293716 C660.138997,39.5005671 659.085462,38.5891671 657.843731,38.5891671 L651.374944,38.5891671 L653.874944,41.0891671 L653.874944,3 C653.874944,1.61928813 652.755656,0.5 651.374944,0.5 L620.019147,0.5 C618.638435,0.5 617.519147,1.61928813 617.519147,3 L617.519147,41.0891671 L611.797216,80.2712113 L614.271214,78.1308414 L607.332657,78.1308414 C605.951945,78.1308414 604.832657,79.2501295 604.832657,80.6308414 L604.832657,142.165311 L600.01696,233.076749 L602.513465,230.708896 L582.380851,230.708896 L584.880851,233.208896 L584.880851,152.700038 C584.880851,151.319326 583.761563,150.200038 582.380851,150.200038 L501.877393,150.200038 C500.496681,150.200038 499.377393,151.319326 499.377393,152.700038 L499.377393,236.076112 L501.877393,233.576112 L444.379166,233.576112 C442.998454,233.576112 441.879166,234.695401 441.879166,236.076112 L441.879166,255.242188 L444.379166,252.742188 L430.969122,252.742188 C429.58841,252.742188 428.469122,253.861476 428.469122,255.242188 L428.469122,276.322442 L430.969122,273.822442 L420.399297,273.822442 L422.899297,276.322442 L422.899297,91.3680555 C422.899297,89.9873437 421.780009,88.8680555 420.399297,88.8680555 L344.709632,88.8680555 C343.32892,88.8680555 342.209632,89.9873437 342.209632,91.3680555 L342.209632,243.746322 L347.095527,242.999659 L341.334095,224.589535 C341.163358,224.04396 334.589943,219.425168 334.589943,219.425168 C334.179227,219.151293 308.796526,219.005143 308.796526,219.005143 C307.415814,219.005143 306.296526,220.124431 306.296526,221.505143 L306.296526,225.336198 L300.646599,242.99934 L303.032394,241.246322 L290.051623,241.246322 L292.551623,243.746322 L292.551623,190.076451 C292.551623,188.695739 291.432335,187.576451 290.051623,187.576451 L242.639952,187.576451 C241.25924,187.576451 240.139952,188.695739 240.139952,190.076451 L240.139952,243.746322 L242.639952,241.246322 L148.248581,241.246322 C146.867869,241.246322 145.748581,242.365611 145.748581,243.746322 L145.748581,330.502581 L148.248581,328.002581 L49.5347862,328.002581 C48.1540743,328.002581 47.0347862,329.121869 47.0347862,330.502581 L47.0347862,367.366026 L49.5347862,364.866026 L0.0434570312,364.866026 C0.0434570312,364.866026 0.0336914062,369.866026 0.0385742187,369.866026 L49.5347862,369.866026 C50.9154981,369.866026 52.0347862,368.746738 52.0347862,367.366026 L52.0347862,330.502581 L49.5347862,333.002581 L148.248581,333.002581 C149.629293,333.002581 150.748581,331.883293 150.748581,330.502581 L150.748581,243.746322 L148.248581,246.246322 L242.639952,246.246322 C244.020664,246.246322 245.139952,245.127034 245.139952,243.746322 L245.139952,190.076451 L242.639952,192.576451 L290.051623,192.576451 L287.551623,190.076451 L287.551623,243.746322 C287.551623,245.127034 288.670911,246.246322 290.051623,246.246322 L303.032394,246.246322 C304.125356,246.246322 305.09162,245.536338 305.418189,244.493305 L311.182321,226.083181 C311.258018,225.841411 311.296526,221.505143 311.296526,221.505143 L308.796526,224.005143 L333.202967,224.005143 L337.561224,227.416174 L342.323737,244.492986 C343.178706,247.224961 347.209632,246.608954 347.209632,243.746322 L347.209632,91.3680555 L344.709632,93.8680555 L420.399297,93.8680555 L417.899297,91.3680555 L417.899297,276.322442 C417.899297,277.703154 419.018586,278.822442 420.399297,278.822442 L430.969122,278.822442 C432.349834,278.822442 433.469122,277.703154 433.469122,276.322442 L433.469122,255.242188 L430.969122,257.742188 L444.379166,257.742188 C445.759878,257.742188 446.879166,256.6229 446.879166,255.242188 L446.879166,236.076112 L444.379166,238.576112 L501.877393,238.576112 C503.258105,238.576112 504.377393,237.456824 504.377393,236.076112 L504.377393,152.700038 L501.877393,155.200038 L582.380851,155.200038 L579.880851,152.700038 L579.880851,233.208896 C579.880851,234.589607 581.000139,235.708896 582.380851,235.708896 L602.513465,235.708896 C603.842824,235.708896 604.939702,234.668544 605.00997,233.341043 L609.829162,142.297458 L609.832657,80.6308414 L607.332657,83.1308414 L614.271214,83.1308414 C615.513009,83.1308414 616.566577,82.2193507 616.745212,80.9904714 L622.493145,41.4487971 C622.510457,41.3297026 622.519147,3 622.519147,3 L620.019147,5.5 L651.374944,5.5 L648.874944,3 L648.874944,41.0891671 C648.874944,42.4698789 649.994232,43.5891671 651.374944,43.5891671 L657.843731,43.5891671 L655.369757,41.4489626 L661.120389,80.9906368 L661.094363,142.165311 C661.094363,143.546023 662.213652,144.665311 663.594363,144.665311 L670.527521,144.665311 L668.027521,142.165311 L668.027521,152.700038 C668.027521,154.08075 669.146809,155.200038 670.527521,155.200038 L721.335575,155.200038 L718.835575,152.700038 L718.835575,197.743961 C718.835575,199.124673 719.954863,200.243961 721.335575,200.243961 L743.355369,200.243961 L740.855369,197.743961 L740.855369,308.987655 C740.855369,310.368367 741.974657,311.487655 743.355369,311.487655 L756.80051,311.487655 C758.181222,311.487655 759.30051,310.368367 759.30051,308.987655 L759.30051,272.977355 L756.80051,275.477355 L771.171692,275.477355 C772.552404,275.477355 773.671692,274.358067 773.671692,272.977355 L773.671692,255.242188 L771.171692,257.742188 L790.804838,257.742188 C792.18555,257.742188 793.304838,256.6229 793.304838,255.242188 L793.304838,99.0355658 L790.804838,101.535566 L844.94448,101.535566 L842.44448,99.0355658 L842.44448,311.722581 C842.44448,313.103292 843.563768,314.222581 844.94448,314.222581 L854.056398,314.222581 C855.43711,314.222581 856.556398,313.103292 856.556398,311.722581 L856.556398,84.4645965 L854.056398,86.9645965 L896.222304,86.9645965 C897.603016,86.9645965 898.722304,85.8453084 898.722304,84.4645965 L898.722304,35.7894056 L896.222304,38.2894056 L1017.45266,38.2894056 L1014.95266,35.7894056 L1014.95266,76.0438344 C1014.95266,77.4245462 1016.07195,78.5438344 1017.45266,78.5438344 L1043.32511,78.5438344 L1040.82511,76.0438344 L1040.82511,215.003958 C1040.82511,216.38467 1041.9444,217.503958 1043.32511,217.503958 L1161.20228,217.503958 L1158.70228,215.003958 L1158.70228,280.169696 C1158.70228,281.550408 1159.82157,282.669696 1161.20228,282.669696 L1210.07726,282.669696 L1207.57726,280.169696 L1207.57726,311.565991 C1207.57726,312.946702 1208.69655,314.065991 1210.07726,314.065991 L1280.0957,314.065991 C1280.0957,314.065991 1280.0957,309.222581 1280.0957,309.065991 Z" id="Page-1"></path>
            </g>
        </g>
    </g>
</svg>