<?xml version="1.0" encoding="UTF-8" standalone="no"?>
<svg width="497px" height="319px" viewBox="0 0 497 319" version="1.1" xmlns="http://www.w3.org/2000/svg" xmlns:xlink="http://www.w3.org/1999/xlink">
    <!-- Generator: Sketch 40.3 (33839) - http://www.bohemiancoding.com/sketch -->
    <title>pieinthesky</title>
    <desc>Created with Sketch.</desc>
    <defs></defs>
    <g id="Page-1" stroke="none" stroke-width="1" fill="none" fill-rule="evenodd">
        <g id="Desktop---Widescreen-(W)" transform="translate(-392.000000, -241.000000)" fill="#FFFFFF">
            <g id="pieinthesky" transform="translate(391.000000, 241.000000)">
                <g id="stars" transform="translate(349.000000, 0.000000)">
                    <polygon id="Star" transform="translate(45.254834, 72.254834) rotate(45.000000) translate(-45.254834, -72.254834) " points="45.254834 80.2548335 22.627417 94.882251 37.2548345 72.254834 22.627417 49.627417 45.254834 64.2548345 67.882251 49.627417 53.2548335 72.254834 67.882251 94.882251"></polygon>
                    <polygon id="Star" transform="translate(101.254834, 18.882251) rotate(45.000000) translate(-101.254834, -18.882251) " points="101.254834 23.5893575 87.9411255 32.1959595 96.5477275 18.882251 87.9411255 5.56854249 101.254834 14.1751445 114.568542 5.56854249 105.96194 18.882251 114.568542 32.1959595"></polygon>
                    <polygon id="Star" transform="translate(137.828427, 60.914214) rotate(45.000000) translate(-137.828427, -60.914214) " points="137.828427 63.6427668 130.110913 68.631728 135.099874 60.9142136 130.110913 53.1966991 137.828427 58.1856603 145.545942 53.1966991 140.55698 60.9142136 145.545942 68.631728"></polygon>
                </g>
                <g id="pie2" transform="translate(0.000000, 101.000000)">
                    <path d="M394.580597,137.546946 C392.227939,154.870906 390,172.367466 390,176.5 C390,199.419817 312.545262,218 217,218 C121.454738,218 44,199.419817 44,176.5 C44,171.744843 41.666923,153.503372 39.2546117,135.913303 C43.1499146,134.379497 46.9586938,133.217839 49.8886719,134.476563 C57.5626415,137.773312 55.9004485,149.185392 65.3261719,151.289062 C72.6000884,152.912485 80.6420003,142.312644 88.7539063,143.951172 C94.3007733,145.071587 90.6036836,158.156609 96.7226563,159 C105.105972,160.15549 121.79605,150.299878 130.923828,151.289062 C137.091638,151.957473 143.077742,160.795906 149.556641,161.277344 C156.76007,161.812621 170.36323,153.726648 177.826172,154.134766 C184.38918,154.49367 187.110287,163.513162 193.875,163.689453 C201.6327,163.891622 209.518447,159 217.5,159 C228.366888,159 237.072637,166.912216 247.509766,166.541016 C254.948324,166.276461 259.151433,154.652636 266.341797,154.134766 C278.466153,153.261536 285.741396,167.725556 297.085938,166.541016 C305.488883,165.663622 310.420253,149.793617 318.380859,148.414062 C328.0294,146.741993 337.673343,155.844477 346.603516,154.134766 C352.194192,153.064412 355.626587,140.548669 360.847656,139.214844 C367.754368,137.450388 377.486249,152.911339 383.710938,151.289062 C388.245947,150.10715 391.385172,143.120595 394.580597,137.546946 Z" id="Combined-Shape"></path>
                    <path d="M352.575355,54.4335002 C317.579288,20.7079663 270.183395,0 218,0 C165.635945,0 118.092597,20.8515977 83.0616187,54.7842444 C79.4367676,57.3095703 75.629475,58.1410385 72.0878906,58.6796875 C60.8699323,60.3858566 58.860432,55.8858506 49.8886719,58.6796875 C42.9702367,60.834112 32.7578123,68.7867216 27.5371094,71.2597656 C22.4038703,73.6913781 13.5164485,70.4519839 10.40625,73.4960938 C6.33516604,77.4806711 1,93.7138712 1,98 C1,100.277169 0.685653704,109.245564 4.3125,111.349609 C7.53338282,113.218143 14.5817157,108.135441 16.8652344,111.349609 C20.8621683,116.975496 17.9255626,127.400276 25.1816406,130.214844 C31.5423522,132.682107 43.0848846,122.553645 49.8886719,125.476563 C57.5626415,128.773312 55.9004485,140.185392 65.3261719,142.289062 C72.6000884,143.912485 80.6420003,133.312644 88.7539063,134.951172 C94.3007733,136.071587 90.6036836,149.156609 96.7226563,150 C105.105972,151.15549 121.79605,141.299878 130.923828,142.289062 C137.091638,142.957473 143.077742,151.795906 149.556641,152.277344 C156.76007,152.812621 170.36323,144.726648 177.826172,145.134766 C184.38918,145.49367 187.110287,154.513162 193.875,154.689453 C201.6327,154.891622 209.518447,150 217.5,150 C228.366888,150 237.072637,157.912216 247.509766,157.541016 C254.948324,157.276461 259.151433,145.652636 266.341797,145.134766 C278.466153,144.261536 285.741396,158.725556 297.085938,157.541016 C305.488883,156.663622 310.420253,140.793617 318.380859,139.414062 C328.0294,137.741993 337.673343,146.844477 346.603516,145.134766 C352.194192,144.064412 355.626587,131.548669 360.847656,130.214844 C367.754368,128.450388 377.486249,143.911339 383.710938,142.289062 C390.676451,140.473713 394.349142,124.964522 399.990234,121.914063 C405.437394,118.968474 415.898759,127.634841 420.291016,125.476563 C432.053075,119.696892 434,104.748088 434,98 C434,92.7921547 428.924076,76.0035872 422.992188,71.2597656 C417.235121,66.6557517 404.453531,69.9071754 394.068359,66.7910156 C384.622287,63.9566405 388.159406,61.154916 375.886719,58.6796875 C370.557894,57.6049383 360.847656,58.6796875 352.575355,54.4335002 Z" id="Combined-Shape"></path>
                </g>
            </g>
        </g>
    </g>
</svg>